<svg xmlns="http://www.w3.org/2000/svg" viewBox="0 0 96 96" role="img" aria-label="Cervello">
  <defs>
    <radialGradient id="brain" cx="35%" cy="24%" r="78%">
      <stop offset="0" stop-color="#ffd6ef"/>
      <stop offset=".55" stop-color="#ff8fc7"/>
      <stop offset="1" stop-color="#d94e94"/>
    </radialGradient>
    <filter id="drop" x="-16%" y="-16%" width="132%" height="132%">
      <feDropShadow dx="0" dy="5" stdDeviation="4" flood-color="#7c2851" flood-opacity=".25"/>
    </filter>
  </defs>
  <path filter="url(#drop)" fill="url(#brain)" d="M35 14c-10 0-18 8-18 18-8 3-12 10-12 19 0 10 6 18 15 21 2 9 10 16 20 16 4 0 8-1 11-4 3 3 8 5 13 5 11 0 20-9 20-20 7-4 11-11 11-20 0-10-6-18-15-21-2-9-10-16-20-16-5 0-9 2-13 5-3-2-7-3-12-3Z"/>
  <path d="M31 28c-7 0-12 5-12 12M40 20c8 3 11 10 7 17M58 22c-7 6-7 14 0 20M70 35c9 3 12 12 7 20M26 56c8-2 15 2 17 10M53 53c-7 2-11 8-9 16M63 70c7-2 11-7 10-14" fill="none" stroke="#b73878" stroke-width="4.5" stroke-linecap="round" opacity=".72"/>
  <path d="M25 26c8-8 22-10 34-5" fill="none" stroke="#ffe1f3" stroke-width="5" stroke-linecap="round" opacity=".7"/>
</svg>
