<svg xmlns="http://www.w3.org/2000/svg" viewBox="0 0 96 96" role="img" aria-label="Fiamma">
  <defs>
    <radialGradient id="outer" cx="45%" cy="26%" r="74%">
      <stop offset="0" stop-color="#ffd66d"/>
      <stop offset=".42" stop-color="#ff7a2f"/>
      <stop offset="1" stop-color="#e92c25"/>
    </radialGradient>
    <radialGradient id="inner" cx="44%" cy="38%" r="62%">
      <stop offset="0" stop-color="#fff7a7"/>
      <stop offset=".6" stop-color="#ffcc3f"/>
      <stop offset="1" stop-color="#ff7a21"/>
    </radialGradient>
    <filter id="drop" x="-16%" y="-16%" width="132%" height="132%">
      <feDropShadow dx="0" dy="5" stdDeviation="4" flood-color="#8a1e16" flood-opacity=".28"/>
    </filter>
  </defs>
  <path filter="url(#drop)" fill="url(#outer)" d="M50 7c7 16-5 22 7 34 5-8 8-14 7-23 18 15 25 35 17 53-6 14-20 21-35 20-17-1-31-12-34-28-3-18 9-31 20-43-1 12 6 18 14 21-6-15-2-24 8-34Z"/>
  <path fill="url(#inner)" d="M48 42c6 11-4 15 3 24 4-5 6-9 6-15 10 10 12 22 7 31-4 7-11 10-19 9-10-1-17-7-18-17-2-10 5-18 12-25-1 8 4 12 9 14-4-9-2-15 0-21Z"/>
  <path d="M34 27c-7 9-14 18-14 31" stroke="#ffb245" stroke-width="5" stroke-linecap="round" opacity=".55"/>
</svg>
