<svg xmlns="http://www.w3.org/2000/svg" viewBox="0 0 96 96" role="img" aria-label="Razzo">
  <defs>
    <linearGradient id="body" x1="32" y1="10" x2="68" y2="72" gradientUnits="userSpaceOnUse">
      <stop offset="0" stop-color="#ffffff"/>
      <stop offset=".55" stop-color="#dfe9ff"/>
      <stop offset="1" stop-color="#8ea8e8"/>
    </linearGradient>
    <radialGradient id="window" cx="40%" cy="35%" r="70%">
      <stop offset="0" stop-color="#b9f4ff"/>
      <stop offset="1" stop-color="#1b84ff"/>
    </radialGradient>
    <filter id="drop" x="-20%" y="-20%" width="140%" height="140%">
      <feDropShadow dx="0" dy="5" stdDeviation="4" flood-color="#273a68" flood-opacity=".25"/>
    </filter>
  </defs>
  <path d="M32 65c-10 5-14 13-15 24 11-3 19-7 24-16Z" fill="#ff5d45"/>
  <path d="M65 38c10 1 17 5 23 14-9 3-17 2-25-3Z" fill="#ff5d45"/>
  <path filter="url(#drop)" fill="url(#body)" d="M30 62c9-24 25-42 47-53 5 22-1 44-19 64-10 2-20-2-28-11Z"/>
  <path d="M56 26c9-7 15-11 21-14-1 6-3 13-7 21Z" fill="#ff5d45"/>
  <circle cx="56" cy="39" r="11" fill="#2b5fbf"/>
  <circle cx="56" cy="39" r="7" fill="url(#window)"/>
  <path d="M36 63c7 6 14 9 22 9" stroke="#6f89c9" stroke-width="4" stroke-linecap="round" opacity=".45"/>
  <path d="M26 70c-8 2-15 9-20 20 11-5 20-6 26-4 1-6-1-11-6-16Z" fill="#ffc640"/>
  <path d="M22 76c-5 3-9 8-12 14 7-3 13-4 18-3 0-4-2-8-6-11Z" fill="#ff7a2f"/>
</svg>
