<svg xmlns="http://www.w3.org/2000/svg" viewBox="0 0 96 96" role="img" aria-label="Mano che saluta">
  <defs>
    <radialGradient id="skin" cx="34%" cy="20%" r="78%">
      <stop offset="0" stop-color="#ffe9a8"/>
      <stop offset=".42" stop-color="#ffd06c"/>
      <stop offset="1" stop-color="#e9902f"/>
    </radialGradient>
    <linearGradient id="shade" x1="24" y1="20" x2="69" y2="84" gradientUnits="userSpaceOnUse">
      <stop offset="0" stop-color="#c87524" stop-opacity="0"/>
      <stop offset="1" stop-color="#b45f1c" stop-opacity=".55"/>
    </linearGradient>
    <filter id="soft" x="-18%" y="-18%" width="136%" height="136%">
      <feDropShadow dx="0" dy="4" stdDeviation="3" flood-color="#6f3f16" flood-opacity=".26"/>
    </filter>
  </defs>
  <g fill="none" stroke="#f3b14f" stroke-width="5" stroke-linecap="round" opacity=".9">
    <path d="M70 18c8 4 13 11 15 20"/>
    <path d="M78 8c9 6 15 15 17 27"/>
    <path d="M25 16C16 20 9 28 6 38"/>
  </g>
  <path filter="url(#soft)" fill="url(#skin)" d="M22 50c-4-6 3-11 8-6l7 8V21c0-7 10-7 10 0v25-30c0-7 11-7 11 0v31-25c0-7 11-7 11 0v31-17c0-7 10-7 10 0v26c0 22-15 32-33 29-11-2-18-9-24-20L11 53c-4-7 5-13 10-6l11 14"/>
  <path fill="url(#shade)" d="M40 64c10 5 24 5 39-5v5c0 22-15 32-33 29-11-2-18-9-24-20L11 53c-2-4 0-8 3-10 13 18 18 20 26 21Z" opacity=".75"/>
  <path d="M38 24v32M50 19v33M62 25v30M73 39v21" stroke="#b86a22" stroke-width="3.2" stroke-linecap="round" opacity=".5"/>
  <path d="M24 47c8 10 14 14 24 15" stroke="#fff3bd" stroke-width="4" stroke-linecap="round" opacity=".5"/>
</svg>
